<svg width="24" height="20" viewBox="0 0 24 20" fill="none" xmlns="http://www.w3.org/2000/svg">
<path d="M6.95586 9.35995C8.99586 9.83996 10.0159 11.1 10.0159 13.14V15.66C10.0159 16.98 9.59586 17.97 8.75586 18.63C7.97586 19.29 6.80586 19.62 5.24586 19.62C2.00586 19.62 0.385864 18.3 0.385864 15.66V12.96C0.385864 11.28 0.595864 9.77995 1.01586 8.45996L3.71586 0.449951H9.02586L6.95586 9.35995ZM20.0059 9.35995C22.0459 9.83996 23.0659 11.1 23.0659 13.14V15.66C23.0659 16.98 22.6459 17.97 21.8059 18.63C21.0259 19.29 19.8559 19.62 18.2959 19.62C15.0559 19.62 13.4359 18.3 13.4359 15.66V12.96C13.4359 11.28 13.6459 9.77995 14.0659 8.45996L16.7659 0.449951H22.0759L20.0059 9.35995Z" fill="#1151F3"/>
</svg>
