<svg width="24" height="20" viewBox="0 0 24 20" fill="none" xmlns="http://www.w3.org/2000/svg">
<path d="M17.0442 10.64C15.0042 10.16 13.9842 8.90005 13.9842 6.86005V4.34005C13.9842 3.02005 14.4042 2.03005 15.2442 1.37005C16.0242 0.710051 17.1942 0.380051 18.7542 0.380051C21.9942 0.38005 23.6142 1.70005 23.6142 4.34005V7.04005C23.6142 8.72005 23.4042 10.2201 22.9842 11.54L20.2842 19.5501L14.9742 19.5501L17.0442 10.64ZM3.99421 10.6401C1.9542 10.1601 0.934205 8.90005 0.934204 6.86005L0.934204 4.34005C0.934204 3.02005 1.3542 2.03005 2.1942 1.37005C2.9742 0.710052 4.1442 0.380052 5.7042 0.380052C8.9442 0.380052 10.5642 1.70005 10.5642 4.34005V7.04005C10.5642 8.72005 10.3542 10.2201 9.9342 11.54L7.2342 19.5501H1.92421L3.99421 10.6401Z" fill="#1151F3"/>
</svg>
