<svg width="20" height="20" viewBox="0 0 20 20" fill="none" xmlns="http://www.w3.org/2000/svg">
<path d="M0 10C0 15.5226 4.4774 20 10 20C15.5226 20 20 15.5226 20 10C20 4.4774 15.5226 0 10 0C4.4774 0 0 4.4774 0 10ZM12.3736 10L8.3024 5.92837C8.16424 5.78293 8.08834 5.58928 8.09091 5.38869C8.09348 5.18811 8.1743 4.99646 8.31615 4.85461C8.458 4.71277 8.64965 4.63194 8.85023 4.62937C9.05082 4.62681 9.24447 4.7027 9.3899 4.84087L14.0053 9.45625C14.1494 9.60049 14.2304 9.79607 14.2304 10C14.2304 10.2039 14.1494 10.3995 14.0053 10.5437L9.3899 15.1591C9.24447 15.2973 9.05082 15.3732 8.85023 15.3706C8.64965 15.3681 8.458 15.2872 8.31615 15.1454C8.1743 15.0035 8.09348 14.8119 8.09091 14.6113C8.08834 14.4107 8.16424 14.2171 8.3024 14.0716L12.3736 10Z" fill="#333333"/>
</svg>
