<svg width="16" height="12" viewBox="0 0 16 12" fill="none" xmlns="http://www.w3.org/2000/svg">
<path d="M2.0467 5.95741C2.3827 6.64608 3.02336 7.60408 3.9547 8.41408C4.98136 9.30675 6.33136 10.0001 8.00003 10.0001C9.6687 10.0001 11.0187 9.30808 12.0454 8.41341C12.9767 7.60341 13.6174 6.64675 13.9527 5.95741C13.446 4.52808 11.6754 2.00008 8.00003 2.00008C4.32536 2.00008 2.5547 4.52808 2.0467 5.95741ZM0.692031 5.81741C1.19003 4.07341 3.34403 0.666748 8.00003 0.666748C12.656 0.666748 14.81 4.07408 15.308 5.81675C15.3501 5.96428 15.34 6.12181 15.2794 6.26275C14.91 7.12475 14.1194 8.37608 12.9214 9.41941C11.7147 10.4701 10.0647 11.3334 8.00003 11.3334C5.93536 11.3334 4.28536 10.4701 3.0787 9.42008C1.88003 8.37608 1.09003 7.12475 0.720697 6.26275C0.66011 6.12181 0.649986 5.96495 0.692031 5.81741Z" fill="#333333"/>
<path d="M8.00004 4.66683C7.64642 4.66683 7.30728 4.80731 7.05723 5.05735C6.80718 5.3074 6.66671 5.64654 6.66671 6.00016C6.66671 6.35378 6.80718 6.69292 7.05723 6.94297C7.30728 7.19302 7.64642 7.3335 8.00004 7.3335C8.35366 7.3335 8.6928 7.19302 8.94285 6.94297C9.1929 6.69292 9.33337 6.35378 9.33337 6.00016C9.33337 5.64654 9.1929 5.3074 8.94285 5.05735C8.6928 4.80731 8.35366 4.66683 8.00004 4.66683ZM5.33337 6.00016C5.33337 5.29292 5.61433 4.61464 6.11442 4.11454C6.61452 3.61445 7.2928 3.3335 8.00004 3.3335C8.70728 3.3335 9.38556 3.61445 9.88566 4.11454C10.3858 4.61464 10.6667 5.29292 10.6667 6.00016C10.6667 6.70741 10.3858 7.38568 9.88566 7.88578C9.38556 8.38588 8.70728 8.66683 8.00004 8.66683C7.2928 8.66683 6.61452 8.38588 6.11442 7.88578C5.61433 7.38568 5.33337 6.70741 5.33337 6.00016Z" fill="#333333"/>
</svg>
